<?xml version="1.0" encoding="UTF-8" standalone="no"?>
<svg
   xmlns:dc="http://purl.org/dc/elements/1.1/"
   xmlns:cc="http://creativecommons.org/ns#"
   xmlns:rdf="http://www.w3.org/1999/02/22-rdf-syntax-ns#"
   xmlns:svg="http://www.w3.org/2000/svg"
   xmlns="http://www.w3.org/2000/svg"
   xmlns:sodipodi="http://sodipodi.sourceforge.net/DTD/sodipodi-0.dtd"
   xmlns:inkscape="http://www.inkscape.org/namespaces/inkscape"
   width="999.99799"
   zoomAndPan="magnify"
   viewBox="0 0 749.88442 178.39425"
   height="237.85899"
   preserveAspectRatio="xMidYMid meet"
   version="1.0"
   id="svg184"
   sodipodi:docname="entrepares.svg"
   inkscape:version="1.0.2 (e86c870879, 2021-01-15)">
  <metadata
     id="metadata188">
    <rdf:RDF>
      <cc:Work
         rdf:about="">
        <dc:format>image/svg+xml</dc:format>
        <dc:type
           rdf:resource="http://purl.org/dc/dcmitype/StillImage" />
        <dc:title></dc:title>
      </cc:Work>
    </rdf:RDF>
  </metadata>
  <sodipodi:namedview
     pagecolor="#ffffff"
     bordercolor="#666666"
     borderopacity="1"
     objecttolerance="10"
     gridtolerance="10"
     guidetolerance="10"
     inkscape:pageopacity="0"
     inkscape:pageshadow="2"
     inkscape:window-width="1920"
     inkscape:window-height="1052"
     id="namedview186"
     showgrid="false"
     inkscape:zoom="1.4020913"
     inkscape:cx="526.71322"
     inkscape:cy="173.5"
     inkscape:window-x="0"
     inkscape:window-y="0"
     inkscape:window-maximized="1"
     inkscape:current-layer="svg184" />
  <defs
     id="defs22">
    <g
       id="g2" />
    <clipPath
       id="198de1bce5">
      <path
         d="M 4.8125,41.605469 H 174 V 210.13281 H 4.8125 Z m 0,0"
         clip-rule="nonzero"
         id="path4" />
    </clipPath>
    <clipPath
       id="c57c4c2a6f">
      <path
         d="m 89.089844,41.605469 c -46.542969,0 -84.277344,37.726562 -84.277344,84.261721 0,46.53906 37.734375,84.26562 84.277344,84.26562 46.546876,0 84.281246,-37.72656 84.281246,-84.26562 0,-46.535159 -37.73437,-84.261721 -84.281246,-84.261721 z m 0,0"
         clip-rule="nonzero"
         id="path7" />
    </clipPath>
    <clipPath
       id="205eb39fe3">
      <path
         d="M 1.074219,38.28125 H 177.10937 V 214.32031 H 1.074219 Z m 0,0"
         clip-rule="nonzero"
         id="path10" />
    </clipPath>
    <clipPath
       id="40f5c9b9fc">
      <path
         d="m 89.089844,38.28125 29.070316,17.84375 33.16796,7.9375 7.94141,33.167969 17.83984,29.070311 -17.83984,29.07031 -7.94141,33.16797 -33.16796,7.9375 -29.070316,17.84375 -29.066406,-17.84375 -33.171876,-7.9375 -7.9375,-33.16797 L 1.074219,126.30078 18.914062,97.230469 26.851562,64.0625 60.023438,56.125 Z m 0,0"
         clip-rule="nonzero"
         id="path13" />
    </clipPath>
    <clipPath
       id="5b72d463f0">
      <path
         d="M 1.074219,38.28125 H 177.10937 V 214.32031 H 1.074219 Z m 0,0"
         clip-rule="nonzero"
         id="path16" />
    </clipPath>
    <clipPath
       id="61d118a34e">
      <path
         d="M 89.089844,38.28125 117.09766,98.292969 177.10937,126.30078 117.09766,154.30859 89.089844,214.32031 61.085938,154.30859 1.074219,126.30078 61.085938,98.292969 Z m 0,0"
         clip-rule="nonzero"
         id="path19" />
    </clipPath>
  </defs>
  <g
     fill="#000000"
     fill-opacity="1"
     id="g142">
    <g
       transform="translate(446.67146,191.86803)"
       id="g140">
      <g
         id="g138" />
    </g>
  </g>
  <g
     id="g281"
     transform="matrix(1.0133788,0,0,1.0133788,-1.1486083,-38.793409)">
    <g
       id="g201">
      <g
         clip-path="url(#198de1bce5)"
         id="g28">
        <g
           clip-path="url(#c57c4c2a6f)"
           id="g26">
          <path
             fill="#d8a790"
             d="M 4.8125,41.605469 H 173.33984 V 210.13281 H 4.8125 Z m 0,0"
             fill-opacity="1"
             fill-rule="nonzero"
             id="path24" />
        </g>
      </g>
      <g
         clip-path="url(#205eb39fe3)"
         id="g34">
        <g
           clip-path="url(#40f5c9b9fc)"
           id="g32">
          <path
             fill="#9b4922"
             d="M 1.074219,38.28125 H 177.10937 V 214.32031 H 1.074219 Z m 0,0"
             fill-opacity="1"
             fill-rule="nonzero"
             id="path30" />
        </g>
      </g>
      <g
         clip-path="url(#5b72d463f0)"
         id="g40">
        <g
           clip-path="url(#61d118a34e)"
           id="g38">
          <path
             fill="#ffbd59"
             d="M 1.074219,38.28125 H 177.10937 V 214.32031 H 1.074219 Z m 0,0"
             fill-opacity="1"
             fill-rule="nonzero"
             id="path36" />
        </g>
      </g>
    </g>
    <g
       fill="#000000"
       fill-opacity="1"
       id="g48">
      <g
         transform="translate(189.0753,103.62234)"
         id="g46">
        <g
           id="g44">
          <path
             d="M 15.40625,-39.21875 H 0.25 v -3.9375 h 34.890625 v 3.9375 H 19.984375 V 0 H 15.40625 Z m 0,0"
             id="path42" />
        </g>
      </g>
    </g>
    <g
       fill="#000000"
       fill-opacity="1"
       id="g56">
      <g
         transform="translate(234.32717,103.62234)"
         id="g54">
        <g
           id="g52">
          <path
             d="m 24.421875,0.375 c -5.59375,0 -9.953125,-1.601562 -13.078125,-4.8125 -3.125,-3.207031 -4.6875,-7.875 -4.6875,-14 v -24.71875 h 4.5625 V -18.625 c 0,5.023438 1.128906,8.765625 3.390625,11.234375 2.257813,2.460937 5.53125,3.6875 9.8125,3.6875 4.3125,0 7.597656,-1.226563 9.859375,-3.6875 2.257812,-2.46875 3.390625,-6.210937 3.390625,-11.234375 v -24.53125 h 4.4375 v 24.71875 c 0,6.125 -1.554687,10.792969 -4.65625,14 -3.105469,3.210938 -7.449219,4.8125 -13.03125,4.8125 z m 0,0"
             id="path50" />
        </g>
      </g>
    </g>
    <g
       fill="#000000"
       fill-opacity="1"
       id="g64">
      <g
         transform="translate(293.01885,103.62234)"
         id="g62">
        <g
           id="g60">
          <path
             d="M 15.40625,-39.21875 H 0.25 v -3.9375 h 34.890625 v 3.9375 H 19.984375 V 0 H 15.40625 Z m 0,0"
             id="path58" />
        </g>
      </g>
    </g>
    <g
       fill="#000000"
       fill-opacity="1"
       id="g72">
      <g
         transform="translate(338.27073,103.62234)"
         id="g70">
        <g
           id="g68">
          <path
             d="m 25.890625,0.375 c -4.273437,0 -8.148437,-0.953125 -11.625,-2.859375 -3.46875,-1.914063 -6.183594,-4.539063 -8.140625,-7.875 -1.949219,-3.332031 -2.921875,-7.070313 -2.921875,-11.21875 0,-4.15625 0.972656,-7.894531 2.921875,-11.21875 1.957031,-3.332031 4.671875,-5.953125 8.140625,-7.859375 3.476563,-1.914062 7.351563,-2.875 11.625,-2.875 4.28125,0 8.132813,0.949219 11.5625,2.84375 3.4375,1.886719 6.140625,4.507812 8.109375,7.859375 1.976562,3.34375 2.96875,7.09375 2.96875,11.25 0,4.148437 -0.992188,7.898437 -2.96875,11.25 -1.96875,3.355469 -4.671875,5.980469 -8.109375,7.875 C 34.023438,-0.566406 30.171875,0.375 25.890625,0.375 Z m 0,-4.078125 c 3.414063,0 6.5,-0.769531 9.25,-2.3125 2.757813,-1.539063 4.914063,-3.675781 6.46875,-6.40625 1.5625,-2.738281 2.34375,-5.789063 2.34375,-9.15625 0,-3.375 -0.78125,-6.425781 -2.34375,-9.15625 -1.554687,-2.726563 -3.710937,-4.863281 -6.46875,-6.40625 -2.75,-1.539063 -5.835937,-2.3125 -9.25,-2.3125 -3.40625,0 -6.5,0.773437 -9.28125,2.3125 -2.773437,1.542969 -4.949219,3.679687 -6.53125,6.40625 -1.585937,2.730469 -2.375,5.78125 -2.375,9.15625 0,3.367187 0.789063,6.417969 2.375,9.15625 1.582031,2.730469 3.757813,4.867187 6.53125,6.40625 2.78125,1.542969 5.875,2.3125 9.28125,2.3125 z m 0,0"
             id="path66" />
        </g>
      </g>
    </g>
    <g
       fill="#000000"
       fill-opacity="1"
       id="g80">
      <g
         transform="translate(399.85997,103.62234)"
         id="g78">
        <g
           id="g76">
          <path
             d="M 36.5,0 26.640625,-13.875 C 25.523438,-13.75 24.375,-13.6875 23.1875,-13.6875 H 11.59375 V 0 H 7.03125 V -43.15625 H 23.1875 c 5.5,0 9.8125,1.320312 12.9375,3.953125 3.125,2.625 4.6875,6.242187 4.6875,10.84375 0,3.367187 -0.855469,6.210937 -2.5625,8.53125 -1.699219,2.324219 -4.132812,4 -7.296875,5.03125 L 41.5,0 Z M 23.0625,-17.578125 c 4.269531,0 7.535156,-0.941406 9.796875,-2.828125 2.257813,-1.894531 3.390625,-4.546875 3.390625,-7.953125 0,-3.5 -1.132812,-6.179687 -3.390625,-8.046875 -2.261719,-1.875 -5.527344,-2.8125 -9.796875,-2.8125 H 11.59375 v 21.640625 z m 0,0"
             id="path74" />
        </g>
      </g>
    </g>
    <g
       fill="#000000"
       fill-opacity="1"
       id="g88">
      <g
         transform="translate(454.29777,103.62234)"
         id="g86">
        <g
           id="g84">
          <path
             d="m 7.03125,-43.15625 h 4.5625 V 0 h -4.5625 z m 0,0"
             id="path82" />
        </g>
      </g>
    </g>
    <g
       fill="#000000"
       fill-opacity="1"
       id="g96">
      <g
         transform="translate(482.78071,103.62234)"
         id="g94">
        <g
           id="g92">
          <path
             d="M 34.09375,-11.53125 H 10.046875 L 4.875,0 h -4.75 l 19.734375,-43.15625 h 4.5 L 44.078125,0 H 39.28125 Z M 32.4375,-15.234375 22.078125,-38.40625 11.71875,-15.234375 Z m 0,0"
             id="path90" />
        </g>
      </g>
    </g>
    <g
       fill="#000000"
       fill-opacity="1"
       id="g104">
      <g
         transform="translate(189.0753,191.86803)"
         id="g102">
        <g
           id="g100">
          <path
             d="M 66.84375,-21.15625 C 58.375,-8.578125 53.390625,-1.734375 41.34375,-1.734375 H 20.9375 v -35.375 h 15.203125 c 11.5,0 14.75,2.921875 17.359375,10.953125 V -49.8125 c -2.609375,8.03125 -5.859375,10.96875 -17.359375,10.96875 H 20.9375 v -35.375 h 18.234375 c 12.046875,0 16.5,5.421875 23.765625,15.734375 l 0.4375,-0.21875 -3.578125,-17.265625 H 1.625 v 0.546875 c 4.453125,0.546875 8.25,1.734375 8.25,5.640625 v 61.421875 c 0,3.90625 -3.796875,6.1875 -8.25,7.8125 V 0 h 56 L 61.3125,2.390625 61.96875,0 l 5.3125,-20.9375 z m 0,0"
             id="path98" />
        </g>
      </g>
    </g>
    <g
       fill="#000000"
       fill-opacity="1"
       id="g112">
      <g
         transform="translate(255.8073,191.86803)"
         id="g110">
        <g
           id="g108">
          <path
             d="m 46.4375,0 h 14.875 c -3.25,-2.171875 -4.234375,-4.234375 -4.234375,-10.09375 v -23.4375 c 0,-16.390625 -8.46875,-19.75 -15.515625,-19.75 -9.65625,0 -18.015625,6.296875 -23.875,10.203125 v -2.0625 l 0.546875,-8.03125 -17.15625,1.625 v 0.4375 c 2.28125,0.21875 5.109375,0.96875 6.625,1.953125 V -7.484375 L 7.046875,0 h 14.875 C 18.671875,-2.171875 17.6875,-4.234375 17.6875,-10.09375 V -40.6875 c 5.53125,-3.703125 10.75,-7.921875 17.6875,-7.921875 5.640625,0 11.71875,2.921875 11.71875,15.296875 v 25.828125 z m 0,0"
             id="path106" />
        </g>
      </g>
    </g>
    <g
       fill="#000000"
       fill-opacity="1"
       id="g120">
      <g
         transform="translate(318.19898,191.86803)"
         id="g118">
        <g
           id="g116">
          <path
             d="m 16.28125,1.734375 h 2.28125 l 13.125,-3.6875 v -0.4375 l -13.125,0.4375 V -50.03125 H 31.140625 L 31.6875,-52.625 h -13.125 v -14 l 0.859375,-4.453125 -19.96875,9.21875 v 0.65625 c 7.0625,-2.0625 9.125,-2.5 9.125,2.0625 v 51.65625 l -0.328125,6.5 z m 0,0"
             id="path114" />
        </g>
      </g>
    </g>
    <g
       fill="#000000"
       fill-opacity="1"
       id="g128">
      <g
         transform="translate(350.42557,191.86803)"
         id="g126">
        <g
           id="g124">
          <path
             d="m 34.9375,-53.171875 c -7.265625,0 -13.34375,4.5625 -15.84375,11.5 H 17.6875 v -3.46875 l 0.546875,-8.03125 -17.15625,1.625 v 0.4375 c 2.28125,0.21875 5.109375,0.96875 6.625,1.953125 V -7.484375 L 7.15625,0 H 21.921875 C 18.671875,-2.171875 17.6875,-4.234375 17.6875,-10.09375 V -32.5625 c 1.078125,-7.59375 4.5625,-14.53125 10.09375,-14.53125 3.46875,0 6.078125,3.140625 3.140625,10.421875 h 0.4375 L 40.6875,-51.875 c -2.0625,-0.96875 -3.796875,-1.296875 -5.75,-1.296875 z m 0,0"
             id="path122" />
        </g>
      </g>
    </g>
    <g
       fill="#000000"
       fill-opacity="1"
       id="g136">
      <g
         transform="translate(390.57321,191.86803)"
         id="g134">
        <g
           id="g132">
          <path
             d="m 54.46875,-10.859375 c -3.359375,4.671875 -12.25,6.84375 -18,6.84375 -13.03125,0 -21.5,-11.28125 -21.609375,-26.15625 H 45.90625 c 13.5625,0 11.0625,-23.109375 -11.5,-23.109375 -15.734375,0 -30.0625,10.75 -30.0625,28.21875 0,16.375 12.375,25.828125 27.453125,25.828125 11.171875,0 19.96875,-5.109375 23.21875,-11.1875 z M 30.5,-51.328125 c 14.09375,0 17.6875,18.984375 11.0625,19.09375 L 14.859375,-31.90625 C 15.40625,-44.171875 21.703125,-51.328125 30.5,-51.328125 Z m 0,0"
             id="path130" />
        </g>
      </g>
    </g>
    <g
       fill="#000000"
       fill-opacity="1"
       id="g150">
      <g
         transform="translate(466.20267,191.86803)"
         id="g148">
        <g
           id="g146">
          <path
             d="M 40.265625,-75.96875 H 1.625 v 0.546875 c 4.453125,0.546875 8.25,1.734375 8.25,5.640625 V -6.1875 c 0,3.90625 -3.796875,5.109375 -8.25,5.640625 V 0 h 27.5625 v -0.546875 c -4.453125,-0.53125 -8.25,-1.734375 -8.25,-5.640625 v -21.703125 h 14.328125 c 20.40625,0 33.640625,-10.84375 33.640625,-26.578125 0,-14.4375 -11.171875,-21.5 -28.640625,-21.5 z m -2.390625,46.125 c -5.109375,0 -10.96875,-0.75 -16.9375,-2.390625 V -74.21875 h 13.578125 c 20.390625,0 23.546875,12.140625 23.546875,23.875 0,16.484375 -6.078125,20.5 -20.1875,20.5 z m 0,0"
             id="path144" />
        </g>
      </g>
    </g>
    <g
       fill="#000000"
       fill-opacity="1"
       id="g158">
      <g
         transform="translate(536.18988,191.86803)"
         id="g156">
        <g
           id="g154">
          <path
             d="m 56,-8.890625 v -40.375 c -5.4375,-2.71875 -11.078125,-4.015625 -18.015625,-4.015625 -22.578125,0 -33.640625,13.453125 -33.640625,29.078125 0,15.734375 11.0625,24.96875 26.15625,24.96875 5.09375,0 9.4375,-1.09375 12.90625,-2.9375 0,0.109375 -0.109375,0.109375 -0.109375,0.109375 L 60.21875,1.296875 v -0.3125 C 56.96875,-1.1875 56,-3.03125 56,-8.890625 Z M 14.859375,-30.0625 c 0,-12.796875 6.515625,-21.15625 17.703125,-21.15625 5.953125,0 10.1875,2.5 13.453125,5.96875 v 34.9375 c 0,1.734375 -0.109375,3.15625 -0.21875,4.234375 -2.171875,2.390625 -4.78125,3.796875 -9.015625,3.796875 -12.46875,0 -21.921875,-12.265625 -21.921875,-27.78125 z m 0,0"
             id="path152" />
        </g>
      </g>
    </g>
    <g
       fill="#000000"
       fill-opacity="1"
       id="g166">
      <g
         transform="translate(598.58159,191.86803)"
         id="g164">
        <g
           id="g162">
          <path
             d="m 34.9375,-53.171875 c -7.265625,0 -13.34375,4.5625 -15.84375,11.5 H 17.6875 v -3.46875 l 0.546875,-8.03125 -17.15625,1.625 v 0.4375 c 2.28125,0.21875 5.109375,0.96875 6.625,1.953125 V -7.484375 L 7.15625,0 H 21.921875 C 18.671875,-2.171875 17.6875,-4.234375 17.6875,-10.09375 V -32.5625 c 1.078125,-7.59375 4.5625,-14.53125 10.09375,-14.53125 3.46875,0 6.078125,3.140625 3.140625,10.421875 h 0.4375 L 40.6875,-51.875 c -2.0625,-0.96875 -3.796875,-1.296875 -5.75,-1.296875 z m 0,0"
             id="path160" />
        </g>
      </g>
    </g>
    <g
       fill="#000000"
       fill-opacity="1"
       id="g174">
      <g
         transform="translate(638.72923,191.86803)"
         id="g172">
        <g
           id="g170">
          <path
             d="m 54.46875,-10.859375 c -3.359375,4.671875 -12.25,6.84375 -18,6.84375 -13.03125,0 -21.5,-11.28125 -21.609375,-26.15625 H 45.90625 c 13.5625,0 11.0625,-23.109375 -11.5,-23.109375 -15.734375,0 -30.0625,10.75 -30.0625,28.21875 0,16.375 12.375,25.828125 27.453125,25.828125 11.171875,0 19.96875,-5.109375 23.21875,-11.1875 z M 30.5,-51.328125 c 14.09375,0 17.6875,18.984375 11.0625,19.09375 L 14.859375,-31.90625 C 15.40625,-44.171875 21.703125,-51.328125 30.5,-51.328125 Z m 0,0"
             id="path168" />
        </g>
      </g>
    </g>
    <g
       fill="#000000"
       fill-opacity="1"
       id="g182">
      <g
         transform="translate(694.82749,191.86803)"
         id="g180">
        <g
           id="g178">
          <path
             d="m 24.640625,0.765625 c 13.453125,0 21.703125,-7.0625 21.703125,-16.71875 0,-5.75 -2.9375,-13.125 -19.328125,-15.734375 -6.828125,-1.078125 -14.3125,-3.25 -14.3125,-10.953125 0,-4.125 1.953125,-9.015625 9.109375,-9.015625 7.375,0 17.03125,5.3125 16.609375,14.765625 H 38.625 l 6.84375,-10.203125 c -4.234375,-3.46875 -11.71875,-6.1875 -19.75,-6.1875 -11.5,0 -20.625,5.640625 -20.625,15.296875 0,5.859375 3.375,13.890625 20.078125,16.5 8.46875,1.296875 13.5625,4.125 13.5625,11.28125 C 38.734375,-5.09375 36.25,-0.875 28.75,-0.875 20.296875,-0.875 9.984375,-6.296875 10.09375,-15.734375 H 9.875 l -6.078125,10.09375 c 4.5625,3.578125 12.265625,6.40625 20.84375,6.40625 z m 0,0"
             id="path176" />
        </g>
      </g>
    </g>
  </g>
</svg>
